<mxfile host="app.diagrams.net" modified="2022-01-28T06:39:19.868Z" agent="5.0 (Windows)" etag="Lvwtgul9DOdxNuDyRqBD" version="16.4.7" type="github">
  <diagram id="V13Ivsi9ePqUQ3KI7lw7" name="第 1 页">
    <mxGraphModel dx="1038" dy="536" grid="1" gridSize="10" guides="1" tooltips="1" connect="1" arrows="1" fold="1" page="1" pageScale="1" pageWidth="1169" pageHeight="1654" math="0" shadow="0">
      <root>
        <mxCell id="0" />
        <mxCell id="1" parent="0" />
        <mxCell id="lNYbX4E87mQOPXdyUeSC-51" value="" style="rounded=0;whiteSpace=wrap;html=1;" parent="1" vertex="1">
          <mxGeometry x="150" y="30" width="560" height="600" as="geometry" />
        </mxCell>
        <mxCell id="lNYbX4E87mQOPXdyUeSC-50" value="&amp;nbsp; 接口服务" style="rounded=1;whiteSpace=wrap;html=1;fontStyle=1;verticalAlign=top;align=left;" parent="1" vertex="1">
          <mxGeometry x="250" y="40" width="360" height="140" as="geometry" />
        </mxCell>
        <mxCell id="lNYbX4E87mQOPXdyUeSC-43" value="" style="rounded=1;whiteSpace=wrap;html=1;fontStyle=1;align=left;verticalAlign=top;" parent="1" vertex="1">
          <mxGeometry x="180" y="350" width="500" height="260" as="geometry" />
        </mxCell>
        <mxCell id="lNYbX4E87mQOPXdyUeSC-13" value="" style="group" parent="1" vertex="1" connectable="0">
          <mxGeometry x="310" y="70" width="100" height="100" as="geometry" />
        </mxCell>
        <mxCell id="lNYbX4E87mQOPXdyUeSC-11" value="&lt;b&gt;&amp;nbsp;DMS-PC-BFF&lt;/b&gt;" style="rounded=1;whiteSpace=wrap;html=1;align=left;verticalAlign=top;" parent="lNYbX4E87mQOPXdyUeSC-13" vertex="1">
          <mxGeometry width="100" height="100" as="geometry" />
        </mxCell>
        <mxCell id="lNYbX4E87mQOPXdyUeSC-12" value="" style="sketch=0;aspect=fixed;html=1;points=[];align=center;image;fontSize=12;image=img/lib/mscae/ResourceGroup.svg;" parent="lNYbX4E87mQOPXdyUeSC-13" vertex="1">
          <mxGeometry x="25" y="36" width="50" height="40" as="geometry" />
        </mxCell>
        <mxCell id="lNYbX4E87mQOPXdyUeSC-17" value="" style="group" parent="1" vertex="1" connectable="0">
          <mxGeometry x="450" y="70" width="100" height="100" as="geometry" />
        </mxCell>
        <mxCell id="lNYbX4E87mQOPXdyUeSC-18" value="&lt;b&gt;&amp;nbsp;DMS-OpenApi&lt;/b&gt;" style="rounded=1;whiteSpace=wrap;html=1;align=left;verticalAlign=top;" parent="lNYbX4E87mQOPXdyUeSC-17" vertex="1">
          <mxGeometry width="100" height="100" as="geometry" />
        </mxCell>
        <mxCell id="lNYbX4E87mQOPXdyUeSC-19" value="" style="sketch=0;aspect=fixed;html=1;points=[];align=center;image;fontSize=12;image=img/lib/mscae/ResourceGroup.svg;" parent="lNYbX4E87mQOPXdyUeSC-17" vertex="1">
          <mxGeometry x="25" y="36" width="50" height="40" as="geometry" />
        </mxCell>
        <mxCell id="lNYbX4E87mQOPXdyUeSC-20" value="" style="group" parent="1" vertex="1" connectable="0">
          <mxGeometry x="380" y="220" width="100" height="100" as="geometry" />
        </mxCell>
        <mxCell id="lNYbX4E87mQOPXdyUeSC-21" value="&lt;b&gt;&amp;nbsp;零部件聚合&lt;/b&gt;" style="rounded=1;whiteSpace=wrap;html=1;align=left;verticalAlign=top;" parent="lNYbX4E87mQOPXdyUeSC-20" vertex="1">
          <mxGeometry width="100" height="100" as="geometry" />
        </mxCell>
        <mxCell id="lNYbX4E87mQOPXdyUeSC-22" value="" style="sketch=0;aspect=fixed;html=1;points=[];align=center;image;fontSize=12;image=img/lib/mscae/ResourceGroup.svg;" parent="lNYbX4E87mQOPXdyUeSC-20" vertex="1">
          <mxGeometry x="25" y="36" width="50" height="40" as="geometry" />
        </mxCell>
        <mxCell id="lNYbX4E87mQOPXdyUeSC-23" value="" style="group;verticalAlign=top;fontStyle=1" parent="1" vertex="1" connectable="0">
          <mxGeometry x="220" y="380" width="100" height="100" as="geometry" />
        </mxCell>
        <mxCell id="lNYbX4E87mQOPXdyUeSC-24" value="&lt;b&gt;&amp;nbsp;零件基础&lt;/b&gt;" style="rounded=1;whiteSpace=wrap;html=1;align=left;verticalAlign=top;" parent="lNYbX4E87mQOPXdyUeSC-23" vertex="1">
          <mxGeometry width="100" height="100" as="geometry" />
        </mxCell>
        <mxCell id="lNYbX4E87mQOPXdyUeSC-25" value="" style="sketch=0;aspect=fixed;html=1;points=[];align=center;image;fontSize=12;image=img/lib/mscae/ResourceGroup.svg;" parent="lNYbX4E87mQOPXdyUeSC-23" vertex="1">
          <mxGeometry x="25" y="36" width="50" height="40" as="geometry" />
        </mxCell>
        <mxCell id="lNYbX4E87mQOPXdyUeSC-26" value="" style="group" parent="1" vertex="1" connectable="0">
          <mxGeometry x="380" y="380" width="100" height="100" as="geometry" />
        </mxCell>
        <mxCell id="lNYbX4E87mQOPXdyUeSC-27" value="&lt;b&gt;&amp;nbsp;采购到货&lt;/b&gt;" style="rounded=1;whiteSpace=wrap;html=1;align=left;verticalAlign=top;" parent="lNYbX4E87mQOPXdyUeSC-26" vertex="1">
          <mxGeometry width="100" height="100" as="geometry" />
        </mxCell>
        <mxCell id="lNYbX4E87mQOPXdyUeSC-28" value="" style="sketch=0;aspect=fixed;html=1;points=[];align=center;image;fontSize=12;image=img/lib/mscae/ResourceGroup.svg;" parent="lNYbX4E87mQOPXdyUeSC-26" vertex="1">
          <mxGeometry x="25" y="36" width="50" height="40" as="geometry" />
        </mxCell>
        <mxCell id="lNYbX4E87mQOPXdyUeSC-32" value="" style="group" parent="1" vertex="1" connectable="0">
          <mxGeometry x="380" y="500" width="100" height="100" as="geometry" />
        </mxCell>
        <mxCell id="lNYbX4E87mQOPXdyUeSC-33" value="&lt;b&gt;&amp;nbsp;呆滞品管理&lt;/b&gt;" style="rounded=1;whiteSpace=wrap;html=1;align=left;verticalAlign=top;" parent="lNYbX4E87mQOPXdyUeSC-32" vertex="1">
          <mxGeometry width="100" height="100" as="geometry" />
        </mxCell>
        <mxCell id="lNYbX4E87mQOPXdyUeSC-34" value="" style="sketch=0;aspect=fixed;html=1;points=[];align=center;image;fontSize=12;image=img/lib/mscae/ResourceGroup.svg;" parent="lNYbX4E87mQOPXdyUeSC-32" vertex="1">
          <mxGeometry x="25" y="36" width="50" height="40" as="geometry" />
        </mxCell>
        <mxCell id="lNYbX4E87mQOPXdyUeSC-35" value="" style="group" parent="1" vertex="1" connectable="0">
          <mxGeometry x="535" y="401" width="100" height="219" as="geometry" />
        </mxCell>
        <mxCell id="lNYbX4E87mQOPXdyUeSC-36" value="&lt;b&gt;&amp;nbsp;零件销售&lt;/b&gt;" style="rounded=1;whiteSpace=wrap;html=1;align=left;verticalAlign=top;" parent="lNYbX4E87mQOPXdyUeSC-35" vertex="1">
          <mxGeometry y="-20" width="100" height="100" as="geometry" />
        </mxCell>
        <mxCell id="lNYbX4E87mQOPXdyUeSC-37" value="" style="sketch=0;aspect=fixed;html=1;points=[];align=center;image;fontSize=12;image=img/lib/mscae/ResourceGroup.svg;" parent="lNYbX4E87mQOPXdyUeSC-35" vertex="1">
          <mxGeometry x="25" y="20" width="50" height="40" as="geometry" />
        </mxCell>
        <mxCell id="xMiaIZtTpREhNw_P9bQc-1" value="" style="group" parent="lNYbX4E87mQOPXdyUeSC-35" vertex="1" connectable="0">
          <mxGeometry y="119" width="100" height="100" as="geometry" />
        </mxCell>
        <mxCell id="xMiaIZtTpREhNw_P9bQc-2" value="&lt;b&gt;&amp;nbsp;在线申请&lt;/b&gt;" style="rounded=1;whiteSpace=wrap;html=1;align=left;verticalAlign=top;" parent="xMiaIZtTpREhNw_P9bQc-1" vertex="1">
          <mxGeometry y="-20" width="100" height="100" as="geometry" />
        </mxCell>
        <mxCell id="xMiaIZtTpREhNw_P9bQc-3" value="" style="sketch=0;aspect=fixed;html=1;points=[];align=center;image;fontSize=12;image=img/lib/mscae/ResourceGroup.svg;" parent="xMiaIZtTpREhNw_P9bQc-1" vertex="1">
          <mxGeometry x="25" y="20" width="50" height="40" as="geometry" />
        </mxCell>
        <mxCell id="lNYbX4E87mQOPXdyUeSC-40" value="&lt;b&gt;&amp;nbsp;MQ-事件总线&lt;/b&gt;" style="rounded=1;whiteSpace=wrap;html=1;align=left;verticalAlign=top;" parent="1" vertex="1">
          <mxGeometry x="800" y="30" width="80" height="80" as="geometry" />
        </mxCell>
        <mxCell id="ZOJFNWgR0a16cHDjI5oV-4" value="" style="sketch=0;aspect=fixed;html=1;points=[];align=center;image;fontSize=12;image=img/lib/mscae/Event_Grid.svg;" parent="1" vertex="1">
          <mxGeometry x="820.2" y="60" width="40" height="40" as="geometry" />
        </mxCell>
        <mxCell id="lNYbX4E87mQOPXdyUeSC-41" value="&lt;b&gt;&amp;nbsp;Eureka&lt;/b&gt;" style="rounded=1;whiteSpace=wrap;html=1;align=left;verticalAlign=top;" parent="1" vertex="1">
          <mxGeometry x="800" y="229" width="80" height="80" as="geometry" />
        </mxCell>
        <mxCell id="ZOJFNWgR0a16cHDjI5oV-8" value="" style="sketch=0;aspect=fixed;html=1;points=[];align=center;image;fontSize=12;image=img/lib/mscae/App_Registrations.svg;direction=south;" parent="1" vertex="1">
          <mxGeometry x="820" y="258" width="40" height="40" as="geometry" />
        </mxCell>
        <mxCell id="lNYbX4E87mQOPXdyUeSC-44" value="" style="group" parent="1" vertex="1" connectable="0">
          <mxGeometry x="560" y="220" width="100" height="100" as="geometry" />
        </mxCell>
        <mxCell id="lNYbX4E87mQOPXdyUeSC-45" value="&lt;b&gt;&amp;nbsp;定时任务&lt;/b&gt;" style="rounded=1;whiteSpace=wrap;html=1;align=left;verticalAlign=top;" parent="lNYbX4E87mQOPXdyUeSC-44" vertex="1">
          <mxGeometry width="100" height="100" as="geometry" />
        </mxCell>
        <mxCell id="lNYbX4E87mQOPXdyUeSC-46" value="" style="sketch=0;aspect=fixed;html=1;points=[];align=center;image;fontSize=12;image=img/lib/mscae/ResourceGroup.svg;" parent="lNYbX4E87mQOPXdyUeSC-44" vertex="1">
          <mxGeometry x="25" y="36" width="50" height="40" as="geometry" />
        </mxCell>
        <mxCell id="lNYbX4E87mQOPXdyUeSC-9" value="" style="group" parent="1" vertex="1" connectable="0">
          <mxGeometry x="800" y="333" width="80" height="80" as="geometry" />
        </mxCell>
        <mxCell id="lNYbX4E87mQOPXdyUeSC-7" value="&lt;b&gt;&amp;nbsp;定时任务-job&lt;/b&gt;" style="rounded=1;whiteSpace=wrap;html=1;align=left;verticalAlign=top;" parent="lNYbX4E87mQOPXdyUeSC-9" vertex="1">
          <mxGeometry y="-1.6" width="80" height="80" as="geometry" />
        </mxCell>
        <mxCell id="ZOJFNWgR0a16cHDjI5oV-3" value="" style="sketch=0;html=1;points=[];align=center;image;fontSize=12;image=img/lib/mscae/Clock.svg;direction=south;" parent="lNYbX4E87mQOPXdyUeSC-9" vertex="1">
          <mxGeometry x="20" y="26.400000000000002" width="40" height="40" as="geometry" />
        </mxCell>
        <mxCell id="lNYbX4E87mQOPXdyUeSC-38" value="&lt;b&gt;&amp;nbsp;缓存&lt;/b&gt;" style="rounded=1;whiteSpace=wrap;html=1;align=left;verticalAlign=top;" parent="1" vertex="1">
          <mxGeometry x="800" y="436" width="80" height="80" as="geometry" />
        </mxCell>
        <mxCell id="ZOJFNWgR0a16cHDjI5oV-1" value="" style="sketch=0;aspect=fixed;html=1;points=[];align=center;image;fontSize=12;image=img/lib/mscae/Cache_Redis_Product.svg;" parent="1" vertex="1">
          <mxGeometry x="820" y="461.2" width="40" height="33.6" as="geometry" />
        </mxCell>
        <mxCell id="lNYbX4E87mQOPXdyUeSC-39" value="&lt;b&gt;&amp;nbsp;数据库&lt;/b&gt;" style="rounded=1;whiteSpace=wrap;html=1;align=left;verticalAlign=top;" parent="1" vertex="1">
          <mxGeometry x="800" y="541" width="80" height="80" as="geometry" />
        </mxCell>
        <mxCell id="ZOJFNWgR0a16cHDjI5oV-5" value="" style="sketch=0;aspect=fixed;html=1;points=[];align=center;image;fontSize=12;image=img/lib/mscae/Database_General.svg;" parent="1" vertex="1">
          <mxGeometry x="825" y="571" width="30.4" height="40" as="geometry" />
        </mxCell>
        <mxCell id="lNYbX4E87mQOPXdyUeSC-54" value="" style="endArrow=classic;html=1;rounded=0;exitX=0.5;exitY=1;exitDx=0;exitDy=0;entryX=0.5;entryY=0;entryDx=0;entryDy=0;" parent="1" source="lNYbX4E87mQOPXdyUeSC-50" target="lNYbX4E87mQOPXdyUeSC-21" edge="1">
          <mxGeometry width="50" height="50" relative="1" as="geometry">
            <mxPoint x="480" y="235" as="sourcePoint" />
            <mxPoint x="530" y="185" as="targetPoint" />
          </mxGeometry>
        </mxCell>
        <mxCell id="lNYbX4E87mQOPXdyUeSC-55" value="" style="endArrow=classic;html=1;rounded=0;exitX=0.5;exitY=1;exitDx=0;exitDy=0;" parent="1" edge="1">
          <mxGeometry width="50" height="50" relative="1" as="geometry">
            <mxPoint x="429.5" y="320" as="sourcePoint" />
            <mxPoint x="430" y="350" as="targetPoint" />
          </mxGeometry>
        </mxCell>
        <mxCell id="lNYbX4E87mQOPXdyUeSC-56" value="" style="endArrow=classic;html=1;rounded=0;entryX=1;entryY=0.5;entryDx=0;entryDy=0;exitX=0;exitY=0.5;exitDx=0;exitDy=0;" parent="1" source="lNYbX4E87mQOPXdyUeSC-45" target="lNYbX4E87mQOPXdyUeSC-21" edge="1">
          <mxGeometry width="50" height="50" relative="1" as="geometry">
            <mxPoint x="560" y="370" as="sourcePoint" />
            <mxPoint x="610" y="320" as="targetPoint" />
          </mxGeometry>
        </mxCell>
        <mxCell id="lNYbX4E87mQOPXdyUeSC-57" value="" style="endArrow=classic;html=1;rounded=0;entryX=0.5;entryY=0;entryDx=0;entryDy=0;exitX=0;exitY=0.5;exitDx=0;exitDy=0;" parent="1" source="lNYbX4E87mQOPXdyUeSC-45" target="lNYbX4E87mQOPXdyUeSC-43" edge="1">
          <mxGeometry width="50" height="50" relative="1" as="geometry">
            <mxPoint x="560" y="370" as="sourcePoint" />
            <mxPoint x="610" y="320" as="targetPoint" />
          </mxGeometry>
        </mxCell>
        <mxCell id="lNYbX4E87mQOPXdyUeSC-58" value="" style="endArrow=classic;html=1;rounded=0;exitX=1;exitY=0.5;exitDx=0;exitDy=0;" parent="1" source="lNYbX4E87mQOPXdyUeSC-51" edge="1">
          <mxGeometry width="50" height="50" relative="1" as="geometry">
            <mxPoint x="750" y="145" as="sourcePoint" />
            <mxPoint x="800" y="95" as="targetPoint" />
          </mxGeometry>
        </mxCell>
        <mxCell id="lNYbX4E87mQOPXdyUeSC-59" value="" style="endArrow=classic;html=1;rounded=0;entryX=0;entryY=0.5;entryDx=0;entryDy=0;" parent="1" target="lNYbX4E87mQOPXdyUeSC-41" edge="1">
          <mxGeometry width="50" height="50" relative="1" as="geometry">
            <mxPoint x="710" y="330" as="sourcePoint" />
            <mxPoint x="800" y="250" as="targetPoint" />
          </mxGeometry>
        </mxCell>
        <mxCell id="lNYbX4E87mQOPXdyUeSC-60" value="" style="endArrow=classic;html=1;rounded=0;entryX=1;entryY=0.5;entryDx=0;entryDy=0;exitX=0;exitY=0.5;exitDx=0;exitDy=0;" parent="1" source="lNYbX4E87mQOPXdyUeSC-7" target="lNYbX4E87mQOPXdyUeSC-51" edge="1">
          <mxGeometry width="50" height="50" relative="1" as="geometry">
            <mxPoint x="720" y="390" as="sourcePoint" />
            <mxPoint x="770" y="340" as="targetPoint" />
          </mxGeometry>
        </mxCell>
        <mxCell id="lNYbX4E87mQOPXdyUeSC-63" value="" style="endArrow=classic;html=1;rounded=0;exitX=1;exitY=0.5;exitDx=0;exitDy=0;entryX=0;entryY=0.5;entryDx=0;entryDy=0;" parent="1" source="lNYbX4E87mQOPXdyUeSC-51" target="lNYbX4E87mQOPXdyUeSC-38" edge="1">
          <mxGeometry width="50" height="50" relative="1" as="geometry">
            <mxPoint x="740" y="430" as="sourcePoint" />
            <mxPoint x="790" y="380" as="targetPoint" />
          </mxGeometry>
        </mxCell>
        <mxCell id="lNYbX4E87mQOPXdyUeSC-64" value="" style="endArrow=classic;html=1;rounded=0;exitX=1;exitY=0.5;exitDx=0;exitDy=0;entryX=0;entryY=0.5;entryDx=0;entryDy=0;" parent="1" source="lNYbX4E87mQOPXdyUeSC-51" target="lNYbX4E87mQOPXdyUeSC-39" edge="1">
          <mxGeometry width="50" height="50" relative="1" as="geometry">
            <mxPoint x="710" y="450" as="sourcePoint" />
            <mxPoint x="800" y="570" as="targetPoint" />
          </mxGeometry>
        </mxCell>
        <mxCell id="xMiaIZtTpREhNw_P9bQc-7" value="" style="group" parent="1" vertex="1" connectable="0">
          <mxGeometry x="220" y="520" width="100" height="219" as="geometry" />
        </mxCell>
        <mxCell id="xMiaIZtTpREhNw_P9bQc-8" value="&lt;b&gt;&amp;nbsp;库存管理&lt;/b&gt;" style="rounded=1;whiteSpace=wrap;html=1;align=left;verticalAlign=top;" parent="xMiaIZtTpREhNw_P9bQc-7" vertex="1">
          <mxGeometry y="-20" width="100" height="100" as="geometry" />
        </mxCell>
        <mxCell id="xMiaIZtTpREhNw_P9bQc-9" value="" style="sketch=0;aspect=fixed;html=1;points=[];align=center;image;fontSize=12;image=img/lib/mscae/ResourceGroup.svg;" parent="xMiaIZtTpREhNw_P9bQc-7" vertex="1">
          <mxGeometry x="25" y="20" width="50" height="40" as="geometry" />
        </mxCell>
        <mxCell id="jg16oC0HRbna0oiw03YJ-1" value="&lt;b&gt;&amp;nbsp;MQ-消息队列&lt;/b&gt;" style="rounded=1;whiteSpace=wrap;html=1;align=left;verticalAlign=top;" parent="1" vertex="1">
          <mxGeometry x="800.2" y="130" width="80" height="80" as="geometry" />
        </mxCell>
        <mxCell id="jg16oC0HRbna0oiw03YJ-3" value="" style="sketch=0;aspect=fixed;html=1;points=[];align=center;image;fontSize=12;image=img/lib/mscae/Event_Grid_Topics.svg;" parent="1" vertex="1">
          <mxGeometry x="818.4" y="160" width="40" height="40" as="geometry" />
        </mxCell>
        <mxCell id="jg16oC0HRbna0oiw03YJ-4" value="" style="endArrow=classic;html=1;rounded=0;" parent="1" edge="1">
          <mxGeometry width="50" height="50" relative="1" as="geometry">
            <mxPoint x="710" y="330" as="sourcePoint" />
            <mxPoint x="800" y="170" as="targetPoint" />
          </mxGeometry>
        </mxCell>
      </root>
    </mxGraphModel>
  </diagram>
</mxfile>
